<svg style="position: absolute; width: 0; height: 0;" width="0" height="0" version="1.1" xmlns="http://www.w3.org/2000/svg" xmlns:xlink="http://www.w3.org/1999/xlink"><defs><symbol id="xiangxia" viewBox="0 -212 1024 1024"><path d="M813 -121.14 l-301 296 l-300 -296 q-14 -14 -31 -21 q-18 -7 -36 -7 q-18 0 -35 7 q-18 7 -32 21 q-28 27 -28 65 q0 39 28 66 l362 360 q13 14 33 21 q19 7 39 8 q19 1 37 -5 q17 -5 29 -18 l367 -366 q29 -27 29 -66 q0 -38 -29 -65 q-27 -28 -66 -28 q-39 0 -66 28 l0 0 Z"></path></symbol><symbol id="shopping_cart" viewBox="0 -212 1024 1024"><path d="M773 570 q37 1 63 27 q25 26 26 64 q-1 37 -26 62 q-26 26 -63 27 q-38 -1 -64 -27 q-26 -25 -27 -62 q1 -38 27 -64 q26 -26 64 -27 l0 0 ZM50 -150 l148 0 l43 89 l667 0 q19 0 32 13 q12 13 12 33 q0 12 -6 21 l-160 292 q-12 21 -32 33 q-21 13 -47 13 l-336 0 l-40 74 l-2 6 q1 10 11 11 l522 0 l0 91 l-541 0 q-37 -1 -62 -27 q-26 -26 -27 -64 q1 -23 11 -42 l61 -112 l-163 -342 l-91 0 l0 -89 l0 0 ZM321 570 q38 1 64 27 q26 26 27 64 q-1 37 -27 62 q-26 26 -64 27 q-37 -1 -62 -27 q-26 -25 -27 -62 q1 -38 27 -64 q25 -26 62 -27 l0 0 Z"></path></symbol><symbol id="heart_empty" viewBox="0 -212 1024 1024"><path d="M1051 132 q0 101 -113 214 l-349 336 l-350 -337 q-112 -112 -112 -213 q0 -49 13 -86 q13 -38 33 -60 q20 -22 49 -36 q29 -13 57 -18 q27 -5 59 -5 q31 0 67 15 q36 16 67 39 q30 23 51 43 q22 20 37 37 q10 13 29 13 q19 0 29 -13 q15 -17 37 -37 q21 -20 52 -43 q30 -23 66 -39 q36 -15 67 -15 q32 0 59 5 q28 5 57 18 q29 14 49 36 q20 22 33 60 q13 37 13 86 l0 0 ZM1128 132 q0 -133 -76 -207 q-77 -75 -212 -75 q-37 0 -75 13 q-39 13 -73 35 q-33 22 -57 41 q-24 19 -46 41 q-22 -22 -46 -41 q-24 -19 -57 -41 q-34 -22 -72 -35 q-39 -13 -76 -13 q-135 0 -212 75 q-76 74 -76 207 q0 40 14 83 q14 42 32 72 q18 30 41 59 q23 29 34 39 q10 11 16 16 l376 362 q10 11 26 11 q16 0 26 -11 l375 -361 q138 -138 138 -270 l0 0 Z"></path></symbol><symbol id="search" viewBox="0 -212 1024 1024"><path d="M853 642 l-223 -223 q68 -85 70 -202 q-4 -140 -96 -233 q-93 -92 -233 -96 q-140 4 -234 96 q-92 93 -96 233 q4 140 96 234 q94 92 234 96 q116 -3 202 -70 l222 223 q11 11 29 12 q37 -4 41 -41 q0 -18 -12 -29 l0 0 ZM371 465 q-105 -4 -175 -73 q-69 -70 -72 -175 q3 -104 72 -175 q70 -69 175 -72 q104 3 175 72 q69 71 72 175 q-3 105 -72 175 q-71 69 -175 73 l0 0 Z"></path></symbol><symbol id="xiangshang" viewBox="0 -212 1024 1024"><path d="M813 371.14 l0 0 q14 14 31 20 q17 7 35 7 q18 0 36 -7 q18 -6 31 -20 q28 -28 28 -66 q0 -38 -28 -66 l-367 -364 q-12 -14 -30 -20 q-18 -6 -37 -5 q-20 1 -39 9 q-19 8 -33 22 l-362 358 q-28 28 -28 66 q0 38 28 66 q14 14 32 20 q17 7 35 7 q18 0 36 -7 q17 -6 31 -20 l300 -297 l301 297 l0 0 Z"></path></symbol><symbol id="177-truck" viewBox="0 -212 1024 1024"><path d="M1187 349 l-142 -285 l-214 0 l0 -142 q-5 -65 -70 -72 l-640 0 q-65 7 -71 72 l0 568 l71 71 l91 0 q-19 32 -19 72 q11 130 141 141 q130 -11 143 -141 q-1 -40 -19 -72 l393 0 q-19 32 -20 72 q13 130 143 141 q130 -11 143 -141 q-1 -40 -20 -72 l90 0 l0 -212 l0 0 ZM831 349 l0 -213 l148 0 l107 213 l-255 0 l0 0 Z"></path></symbol><symbol id="history" viewBox="0 -212 1024 1024"><path d="M601 101 l75 0 l0 211 l176 105 l-38 61 l-213 -129 l0 -248 l0 0 ZM650 -150 q191 5 319 132 q127 127 131 318 q-4 191 -131 318 q-128 127 -319 132 q-94 0 -174 -35 q-80 -34 -142 -96 l70 -73 q48 48 111 75 q63 28 135 28 q150 -3 249 -101 q99 -98 103 -248 q-4 -150 -103 -248 q-99 -98 -249 -101 q-150 3 -247 101 q-98 98 -102 248 l150 0 l-202 202 l-4 -7 l-195 -195 l150 0 q5 -191 132 -318 q127 -127 318 -132 l0 0 Z"></path></symbol><symbol id="star" viewBox="0 -212 1024 1024"><path d="M1019 208 q0 -21 -33 -26 l-292 -43 l-131 -265 q-11 -24 -29 -24 q-17 0 -28 24 l-131 265 l-292 43 q-33 5 -33 26 q0 13 15 28 l211 206 l-50 292 q-1 8 -1 11 q0 12 7 21 q5 8 18 8 q10 0 23 -7 l261 -137 l262 137 q12 7 23 7 q12 0 18 -8 q6 -9 6 -21 q0 -7 -1 -11 l-50 -292 l212 -206 q15 -15 15 -28 l0 0 Z"></path></symbol></defs></svg>