<svg version="1.1" xmlns="http://www.w3.org/2000/svg" xmlns:xlink="http://www.w3.org/1999/xlink" x="0px" y="0px" width="382.944px" height="382.947px" viewBox="0 0 382.944 382.947" enable-background="new 0 0 382.944 382.947" xml:space="preserve"><g><g><path d="M382.943,382.947h-16.639V0.001h16.639V382.947z"></path></g><path d="M333.021,16.642H49.925V0.001h283.096V16.642z"></path><g><path d="M326.045,236.146l-273.45-73.27l4.307-16.075l273.451,73.27L326.045,236.146z"></path></g><g><path d="M333.021,382.947H49.925v-16.642h283.096V382.947z"></path></g><g><path d="M16.641,382.947H0V0.001h16.642V382.947z"></path></g><g><path d="M162.909,99.815v-49.89h12.851v49.133c0,10.799,5.939,16.737,15.657,16.737c9.826,0,15.658-5.938,15.658-16.737V49.925
            h12.957v49.89c0,18.464-12.523,28.29-28.615,28.29C175.435,128.105,162.909,118.279,162.909,99.815z"></path></g><g><path d="M207.291,279.466c-0.758-4.752-4.752-11.771-15.011-11.771c-7.773,0-13.174,5.183-13.174,11.015
            c0,4.86,3.023,8.531,8.963,9.827l11.015,2.267c13.498,2.701,20.732,11.231,20.732,22.03c0,11.877-9.611,23.217-27.105,23.217
            c-19.436,0-28.399-12.527-29.586-23.542l12.094-3.456c0.756,7.992,6.48,15.335,17.493,15.335c9.18,0,13.931-4.645,13.931-10.582
            c0-4.968-3.671-8.963-10.259-10.367l-10.797-2.268c-11.661-2.375-19.437-10.042-19.437-21.487
            c0-12.852,11.77-23.434,26.023-23.434c18.033,0,25.052,11.014,26.781,19.544L207.291,279.466z"></path></g></g></svg>